<mxfile host="app.diagrams.net" modified="2021-12-30T05:53:34.250Z" agent="5.0 (Windows NT 10.0; Win64; x64) AppleWebKit/537.36 (KHTML, like Gecko) Chrome/92.0.4515.159 Safari/537.36" etag="gLhw_rq5Q1KNYGp3VURu" version="16.1.0" type="github">
  <diagram id="7vXB9TgOSj29Q9VEpIP5" name="第 1 页">
    <mxGraphModel dx="1038" dy="491" grid="1" gridSize="10" guides="1" tooltips="1" connect="1" arrows="1" fold="1" page="1" pageScale="1" pageWidth="827" pageHeight="1169" math="0" shadow="0">
      <root>
        <mxCell id="0" />
        <mxCell id="1" parent="0" />
        <mxCell id="qpqhB_uLlABD5rDr3i2A-1" value="" style="shape=table;html=1;whiteSpace=wrap;startSize=0;container=1;collapsible=0;childLayout=tableLayout;strokeColor=#E6D0DE;fontColor=#CDA2BE;" vertex="1" parent="1">
          <mxGeometry x="100" y="290" width="600" height="146" as="geometry" />
        </mxCell>
        <mxCell id="qpqhB_uLlABD5rDr3i2A-6" value="" style="shape=partialRectangle;html=1;whiteSpace=wrap;collapsible=0;dropTarget=0;pointerEvents=0;fillColor=none;top=0;left=0;bottom=0;right=0;points=[[0,0.5],[1,0.5]];portConstraint=eastwest;" vertex="1" parent="qpqhB_uLlABD5rDr3i2A-1">
          <mxGeometry width="600" height="40" as="geometry" />
        </mxCell>
        <mxCell id="qpqhB_uLlABD5rDr3i2A-7" value="序号" style="shape=partialRectangle;html=1;whiteSpace=wrap;connectable=0;fillColor=none;top=0;left=0;bottom=0;right=0;overflow=hidden;pointerEvents=1;fontColor=#000000;" vertex="1" parent="qpqhB_uLlABD5rDr3i2A-6">
          <mxGeometry width="70" height="40" as="geometry">
            <mxRectangle width="70" height="40" as="alternateBounds" />
          </mxGeometry>
        </mxCell>
        <mxCell id="qpqhB_uLlABD5rDr3i2A-8" value="名称" style="shape=partialRectangle;html=1;whiteSpace=wrap;connectable=0;fillColor=none;top=0;left=0;bottom=0;right=0;overflow=hidden;pointerEvents=1;fontColor=#000000;" vertex="1" parent="qpqhB_uLlABD5rDr3i2A-6">
          <mxGeometry x="70" width="100" height="40" as="geometry">
            <mxRectangle width="100" height="40" as="alternateBounds" />
          </mxGeometry>
        </mxCell>
        <mxCell id="qpqhB_uLlABD5rDr3i2A-9" value="创建人" style="shape=partialRectangle;html=1;whiteSpace=wrap;connectable=0;fillColor=none;top=0;left=0;bottom=0;right=0;overflow=hidden;pointerEvents=1;" vertex="1" parent="qpqhB_uLlABD5rDr3i2A-6">
          <mxGeometry x="170" width="120" height="40" as="geometry">
            <mxRectangle width="120" height="40" as="alternateBounds" />
          </mxGeometry>
        </mxCell>
        <mxCell id="qpqhB_uLlABD5rDr3i2A-26" value="创建时间" style="shape=partialRectangle;html=1;whiteSpace=wrap;connectable=0;fillColor=none;top=0;left=0;bottom=0;right=0;overflow=hidden;pointerEvents=1;" vertex="1" parent="qpqhB_uLlABD5rDr3i2A-6">
          <mxGeometry x="290" width="150" height="40" as="geometry">
            <mxRectangle width="150" height="40" as="alternateBounds" />
          </mxGeometry>
        </mxCell>
        <mxCell id="qpqhB_uLlABD5rDr3i2A-35" value="操作" style="shape=partialRectangle;html=1;whiteSpace=wrap;connectable=0;fillColor=none;top=0;left=0;bottom=0;right=0;overflow=hidden;pointerEvents=1;" vertex="1" parent="qpqhB_uLlABD5rDr3i2A-6">
          <mxGeometry x="440" width="160" height="40" as="geometry">
            <mxRectangle width="160" height="40" as="alternateBounds" />
          </mxGeometry>
        </mxCell>
        <mxCell id="qpqhB_uLlABD5rDr3i2A-10" value="" style="shape=partialRectangle;html=1;whiteSpace=wrap;collapsible=0;dropTarget=0;pointerEvents=0;fillColor=none;top=0;left=0;bottom=0;right=0;points=[[0,0.5],[1,0.5]];portConstraint=eastwest;" vertex="1" parent="qpqhB_uLlABD5rDr3i2A-1">
          <mxGeometry y="40" width="600" height="53" as="geometry" />
        </mxCell>
        <mxCell id="qpqhB_uLlABD5rDr3i2A-11" value="1" style="shape=partialRectangle;html=1;whiteSpace=wrap;connectable=0;fillColor=none;top=0;left=0;bottom=0;right=0;overflow=hidden;pointerEvents=1;" vertex="1" parent="qpqhB_uLlABD5rDr3i2A-10">
          <mxGeometry width="70" height="53" as="geometry">
            <mxRectangle width="70" height="53" as="alternateBounds" />
          </mxGeometry>
        </mxCell>
        <mxCell id="qpqhB_uLlABD5rDr3i2A-12" value="办公" style="shape=partialRectangle;html=1;whiteSpace=wrap;connectable=0;fillColor=none;top=0;left=0;bottom=0;right=0;overflow=hidden;pointerEvents=1;" vertex="1" parent="qpqhB_uLlABD5rDr3i2A-10">
          <mxGeometry x="70" width="100" height="53" as="geometry">
            <mxRectangle width="100" height="53" as="alternateBounds" />
          </mxGeometry>
        </mxCell>
        <mxCell id="qpqhB_uLlABD5rDr3i2A-13" value="张八" style="shape=partialRectangle;html=1;whiteSpace=wrap;connectable=0;fillColor=none;top=0;left=0;bottom=0;right=0;overflow=hidden;pointerEvents=1;" vertex="1" parent="qpqhB_uLlABD5rDr3i2A-10">
          <mxGeometry x="170" width="120" height="53" as="geometry">
            <mxRectangle width="120" height="53" as="alternateBounds" />
          </mxGeometry>
        </mxCell>
        <mxCell id="qpqhB_uLlABD5rDr3i2A-27" value="2021-12-31 19:19:19" style="shape=partialRectangle;html=1;whiteSpace=wrap;connectable=0;fillColor=none;top=0;left=0;bottom=0;right=0;overflow=hidden;pointerEvents=1;" vertex="1" parent="qpqhB_uLlABD5rDr3i2A-10">
          <mxGeometry x="290" width="150" height="53" as="geometry">
            <mxRectangle width="150" height="53" as="alternateBounds" />
          </mxGeometry>
        </mxCell>
        <mxCell id="qpqhB_uLlABD5rDr3i2A-36" value="上移&amp;nbsp; 下移&amp;nbsp; 修改" style="shape=partialRectangle;html=1;whiteSpace=wrap;connectable=0;fillColor=none;top=0;left=0;bottom=0;right=0;overflow=hidden;pointerEvents=1;" vertex="1" parent="qpqhB_uLlABD5rDr3i2A-10">
          <mxGeometry x="440" width="160" height="53" as="geometry">
            <mxRectangle width="160" height="53" as="alternateBounds" />
          </mxGeometry>
        </mxCell>
        <mxCell id="qpqhB_uLlABD5rDr3i2A-2" value="" style="shape=partialRectangle;html=1;whiteSpace=wrap;collapsible=0;dropTarget=0;pointerEvents=0;fillColor=none;top=0;left=0;bottom=0;right=0;points=[[0,0.5],[1,0.5]];portConstraint=eastwest;fontColor=#E6D0DE;strokeColor=#E6D0DE;" vertex="1" parent="qpqhB_uLlABD5rDr3i2A-1">
          <mxGeometry y="93" width="600" height="53" as="geometry" />
        </mxCell>
        <mxCell id="qpqhB_uLlABD5rDr3i2A-3" value="" style="shape=partialRectangle;html=1;whiteSpace=wrap;connectable=0;fillColor=none;top=0;left=0;bottom=0;right=0;overflow=hidden;pointerEvents=1;" vertex="1" parent="qpqhB_uLlABD5rDr3i2A-2">
          <mxGeometry width="70" height="53" as="geometry">
            <mxRectangle width="70" height="53" as="alternateBounds" />
          </mxGeometry>
        </mxCell>
        <mxCell id="qpqhB_uLlABD5rDr3i2A-4" value="" style="shape=partialRectangle;html=1;whiteSpace=wrap;connectable=0;fillColor=none;top=0;left=0;bottom=0;right=0;overflow=hidden;pointerEvents=1;" vertex="1" parent="qpqhB_uLlABD5rDr3i2A-2">
          <mxGeometry x="70" width="100" height="53" as="geometry">
            <mxRectangle width="100" height="53" as="alternateBounds" />
          </mxGeometry>
        </mxCell>
        <mxCell id="qpqhB_uLlABD5rDr3i2A-5" value="" style="shape=partialRectangle;html=1;whiteSpace=wrap;connectable=0;fillColor=none;top=0;left=0;bottom=0;right=0;overflow=hidden;pointerEvents=1;" vertex="1" parent="qpqhB_uLlABD5rDr3i2A-2">
          <mxGeometry x="170" width="120" height="53" as="geometry">
            <mxRectangle width="120" height="53" as="alternateBounds" />
          </mxGeometry>
        </mxCell>
        <mxCell id="qpqhB_uLlABD5rDr3i2A-28" style="shape=partialRectangle;html=1;whiteSpace=wrap;connectable=0;fillColor=none;top=0;left=0;bottom=0;right=0;overflow=hidden;pointerEvents=1;" vertex="1" parent="qpqhB_uLlABD5rDr3i2A-2">
          <mxGeometry x="290" width="150" height="53" as="geometry">
            <mxRectangle width="150" height="53" as="alternateBounds" />
          </mxGeometry>
        </mxCell>
        <mxCell id="qpqhB_uLlABD5rDr3i2A-37" style="shape=partialRectangle;html=1;whiteSpace=wrap;connectable=0;fillColor=none;top=0;left=0;bottom=0;right=0;overflow=hidden;pointerEvents=1;" vertex="1" parent="qpqhB_uLlABD5rDr3i2A-2">
          <mxGeometry x="440" width="160" height="53" as="geometry">
            <mxRectangle width="160" height="53" as="alternateBounds" />
          </mxGeometry>
        </mxCell>
        <mxCell id="qpqhB_uLlABD5rDr3i2A-48" value="" style="html=1;shadow=0;dashed=0;shape=mxgraph.bootstrap.rrect;rSize=5;strokeColor=#CED4DA;html=1;whiteSpace=wrap;fillColor=#FFFFFF;fontColor=#7D868C;align=left;spacing=15;spacingLeft=40;fontSize=14;" vertex="1" parent="1">
          <mxGeometry x="100" y="170" width="280" height="40" as="geometry" />
        </mxCell>
        <mxCell id="qpqhB_uLlABD5rDr3i2A-49" value="名称" style="html=1;shadow=0;dashed=0;shape=mxgraph.bootstrap.leftButton;strokeColor=inherit;gradientColor=inherit;fontColor=inherit;fillColor=#E9ECEF;rSize=5;perimeter=none;whiteSpace=wrap;resizeHeight=1;fontSize=14;" vertex="1" parent="qpqhB_uLlABD5rDr3i2A-48">
          <mxGeometry width="90" height="40" as="geometry" />
        </mxCell>
        <mxCell id="qpqhB_uLlABD5rDr3i2A-51" value="搜索" style="rounded=1;html=1;shadow=0;dashed=0;whiteSpace=wrap;fontSize=10;fillColor=#E6E6E6;align=center;strokeColor=#E6E6E6;fontColor=#333333;" vertex="1" parent="1">
          <mxGeometry x="400" y="170" width="110" height="38" as="geometry" />
        </mxCell>
        <mxCell id="qpqhB_uLlABD5rDr3i2A-52" value="新增" style="rounded=1;html=1;shadow=0;dashed=0;whiteSpace=wrap;fontSize=10;fillColor=#E6E6E6;align=center;strokeColor=#E6E6E6;fontColor=#333333;" vertex="1" parent="1">
          <mxGeometry x="100" y="230" width="110" height="38" as="geometry" />
        </mxCell>
      </root>
    </mxGraphModel>
  </diagram>
</mxfile>
